%TF.GenerationSoftware,KiCad,Pcbnew,10.0.1*%
%TF.CreationDate,2026-04-19T13:47:18+05:30*%
%TF.ProjectId,LM2596,4c4d3235-3936-42e6-9b69-6361645f7063,rev?*%
%TF.SameCoordinates,Original*%
%TF.FileFunction,Copper,L1,Top*%
%TF.FilePolarity,Positive*%
%FSLAX46Y46*%
G04 Gerber Fmt 4.6, Leading zero omitted, Abs format (unit mm)*
G04 Created by KiCad (PCBNEW 10.0.1) date 2026-04-19 13:47:18*
%MOMM*%
%LPD*%
G01*
G04 APERTURE LIST*
G04 Aperture macros list*
%AMRoundRect*
0 Rectangle with rounded corners*
0 $1 Rounding radius*
0 $2 $3 $4 $5 $6 $7 $8 $9 X,Y pos of 4 corners*
0 Add a 4 corners polygon primitive as box body*
4,1,4,$2,$3,$4,$5,$6,$7,$8,$9,$2,$3,0*
0 Add four circle primitives for the rounded corners*
1,1,$1+$1,$2,$3*
1,1,$1+$1,$4,$5*
1,1,$1+$1,$6,$7*
1,1,$1+$1,$8,$9*
0 Add four rect primitives between the rounded corners*
20,1,$1+$1,$2,$3,$4,$5,0*
20,1,$1+$1,$4,$5,$6,$7,0*
20,1,$1+$1,$6,$7,$8,$9,0*
20,1,$1+$1,$8,$9,$2,$3,0*%
G04 Aperture macros list end*
%TA.AperFunction,SMDPad,CuDef*%
%ADD10RoundRect,0.100000X0.100000X-0.130000X0.100000X0.130000X-0.100000X0.130000X-0.100000X-0.130000X0*%
%TD*%
%TA.AperFunction,ComponentPad*%
%ADD11O,2.020000X5.020000*%
%TD*%
%TA.AperFunction,ComponentPad*%
%ADD12R,2.020000X5.020000*%
%TD*%
%TA.AperFunction,SMDPad,CuDef*%
%ADD13RoundRect,0.100000X0.130000X0.100000X-0.130000X0.100000X-0.130000X-0.100000X0.130000X-0.100000X0*%
%TD*%
%TA.AperFunction,ComponentPad*%
%ADD14R,3.000000X3.000000*%
%TD*%
%TA.AperFunction,ComponentPad*%
%ADD15C,3.000000*%
%TD*%
%TA.AperFunction,SMDPad,CuDef*%
%ADD16RoundRect,0.250000X2.050000X0.300000X-2.050000X0.300000X-2.050000X-0.300000X2.050000X-0.300000X0*%
%TD*%
%TA.AperFunction,SMDPad,CuDef*%
%ADD17RoundRect,0.250002X4.449998X5.149998X-4.449998X5.149998X-4.449998X-5.149998X4.449998X-5.149998X0*%
%TD*%
%TA.AperFunction,ComponentPad*%
%ADD18RoundRect,0.250000X-1.350000X1.350000X-1.350000X-1.350000X1.350000X-1.350000X1.350000X1.350000X0*%
%TD*%
%TA.AperFunction,ComponentPad*%
%ADD19C,3.200000*%
%TD*%
%TA.AperFunction,SMDPad,CuDef*%
%ADD20R,1.500000X2.400000*%
%TD*%
%TA.AperFunction,Conductor*%
%ADD21C,0.200000*%
%TD*%
G04 APERTURE END LIST*
D10*
%TO.P,C2,2*%
%TO.N,GND*%
X196800000Y-60430000D03*
%TO.P,C2,1*%
%TO.N,Net-(J2-Pin_1)*%
X196800000Y-61070000D03*
%TD*%
D11*
%TO.P,J1,2*%
%TO.N,GND*%
X188505000Y-65100000D03*
D12*
%TO.P,J1,1*%
%TO.N,Net-(U1-VIN)*%
X193685000Y-65100000D03*
%TD*%
D13*
%TO.P,C1,2*%
%TO.N,GND*%
X191660000Y-76100000D03*
%TO.P,C1,1*%
%TO.N,Net-(U1-VIN)*%
X192300000Y-76100000D03*
%TD*%
D14*
%TO.P,J2,1,Pin_1*%
%TO.N,Net-(J2-Pin_1)*%
X203250000Y-64032500D03*
D15*
%TO.P,J2,2,Pin_2*%
%TO.N,GND*%
X203250000Y-60152500D03*
%TD*%
D16*
%TO.P,U1,1,VIN*%
%TO.N,Net-(U1-VIN)*%
X190700000Y-91575000D03*
%TO.P,U1,2,OUT*%
%TO.N,Net-(D1-K)*%
X190700000Y-89875000D03*
%TO.P,U1,3,GND*%
%TO.N,GND*%
X190700000Y-88175000D03*
D17*
X181550000Y-88175000D03*
D16*
%TO.P,U1,4,FB*%
%TO.N,Net-(D1-K)*%
X190700000Y-86475000D03*
%TO.P,U1,5,~{ON}/OFF*%
%TO.N,GND*%
X190700000Y-84775000D03*
%TD*%
D18*
%TO.P,D1,1,K*%
%TO.N,Net-(D1-K)*%
X204200000Y-80380000D03*
D19*
%TO.P,D1,2,A*%
%TO.N,GND*%
X204200000Y-95620000D03*
%TD*%
D20*
%TO.P,L1,1,1*%
%TO.N,Net-(D1-K)*%
X201900000Y-72575000D03*
%TO.P,L1,2,2*%
%TO.N,Net-(J2-Pin_1)*%
X207400000Y-72575000D03*
%TD*%
%TO.N,GND*%
D21*
X200172500Y-57327500D02*
X200172500Y-57075000D01*
X197070000Y-60430000D02*
X200172500Y-57327500D01*
X196800000Y-60430000D02*
X197070000Y-60430000D01*
X200298750Y-57201250D02*
X200172500Y-57075000D01*
X188505000Y-58470000D02*
X188505000Y-65100000D01*
X189900000Y-57075000D02*
X188505000Y-58470000D01*
X203250000Y-60152500D02*
X200298750Y-57201250D01*
X200172500Y-57075000D02*
X189900000Y-57075000D01*
%TO.N,Net-(J2-Pin_1)*%
X199762500Y-64032500D02*
X196800000Y-61070000D01*
X203250000Y-64032500D02*
X199762500Y-64032500D01*
X207400000Y-72575000D02*
X207400000Y-68182500D01*
X207400000Y-68182500D02*
X203250000Y-64032500D01*
%TO.N,Net-(D1-K)*%
X201900000Y-78080000D02*
X204200000Y-80380000D01*
X201900000Y-72575000D02*
X201900000Y-78080000D01*
%TO.N,GND*%
X181550000Y-94825000D02*
X181550000Y-88175000D01*
X183200000Y-96475000D02*
X181550000Y-94825000D01*
X203345000Y-96475000D02*
X183200000Y-96475000D01*
X204200000Y-95620000D02*
X203345000Y-96475000D01*
%TO.N,Net-(D1-K)*%
X193075000Y-89875000D02*
X196475000Y-86475000D01*
X190700000Y-89875000D02*
X193075000Y-89875000D01*
X202570000Y-80380000D02*
X204200000Y-80380000D01*
X196475000Y-86475000D02*
X202570000Y-80380000D01*
X190700000Y-86475000D02*
X196475000Y-86475000D01*
%TO.N,Net-(U1-VIN)*%
X190525000Y-74750000D02*
X192300000Y-74750000D01*
X192300000Y-74750000D02*
X192300000Y-66485000D01*
X186900000Y-78375000D02*
X190525000Y-74750000D01*
X192450000Y-94800000D02*
X186900000Y-94800000D01*
X195025000Y-92225000D02*
X192450000Y-94800000D01*
X186900000Y-94800000D02*
X186900000Y-78375000D01*
X194375000Y-91575000D02*
X195025000Y-92225000D01*
X190700000Y-91575000D02*
X194375000Y-91575000D01*
X192300000Y-66485000D02*
X193685000Y-65100000D01*
X192300000Y-76100000D02*
X192300000Y-74750000D01*
%TO.N,GND*%
X181550000Y-70850000D02*
X181550000Y-88175000D01*
X187300000Y-65100000D02*
X181550000Y-70850000D01*
X188505000Y-65100000D02*
X187300000Y-65100000D01*
X191660000Y-76100000D02*
X191660000Y-83815000D01*
X191660000Y-83815000D02*
X190700000Y-84775000D01*
%TD*%
%TA.AperFunction,Conductor*%
%TO.N,GND*%
G36*
X212067539Y-56545185D02*
G01*
X212113294Y-56597989D01*
X212124500Y-56649500D01*
X212124500Y-99575500D01*
X212104815Y-99642539D01*
X212052011Y-99688294D01*
X212000500Y-99699500D01*
X175674500Y-99699500D01*
X175607461Y-99679815D01*
X175561706Y-99627011D01*
X175550500Y-99575500D01*
X175550500Y-95482358D01*
X202100000Y-95482358D01*
X202100000Y-95757641D01*
X202135930Y-96030565D01*
X202207180Y-96296471D01*
X202312520Y-96550787D01*
X202312527Y-96550802D01*
X202450163Y-96789196D01*
X202548758Y-96917686D01*
X203484152Y-95982292D01*
X203491049Y-95998942D01*
X203578599Y-96129970D01*
X203690030Y-96241401D01*
X203821058Y-96328951D01*
X203837706Y-96335847D01*
X202902312Y-97271240D01*
X203030804Y-97369836D01*
X203269197Y-97507472D01*
X203269212Y-97507479D01*
X203523528Y-97612819D01*
X203789434Y-97684069D01*
X204062358Y-97720000D01*
X204337642Y-97720000D01*
X204610565Y-97684069D01*
X204876471Y-97612819D01*
X205130787Y-97507479D01*
X205130802Y-97507472D01*
X205369194Y-97369836D01*
X205369211Y-97369825D01*
X205497686Y-97271241D01*
X205497686Y-97271239D01*
X204562293Y-96335847D01*
X204578942Y-96328951D01*
X204709970Y-96241401D01*
X204821401Y-96129970D01*
X204908951Y-95998942D01*
X204915847Y-95982293D01*
X205851239Y-96917686D01*
X205851241Y-96917686D01*
X205949825Y-96789211D01*
X205949836Y-96789194D01*
X206087472Y-96550802D01*
X206087479Y-96550787D01*
X206192819Y-96296471D01*
X206264069Y-96030565D01*
X206300000Y-95757641D01*
X206300000Y-95482358D01*
X206264069Y-95209434D01*
X206192819Y-94943528D01*
X206087479Y-94689212D01*
X206087472Y-94689197D01*
X205949836Y-94450804D01*
X205851240Y-94322312D01*
X204915846Y-95257705D01*
X204908951Y-95241058D01*
X204821401Y-95110030D01*
X204709970Y-94998599D01*
X204578942Y-94911049D01*
X204562293Y-94904152D01*
X205497686Y-93968758D01*
X205369196Y-93870163D01*
X205130802Y-93732527D01*
X205130787Y-93732520D01*
X204876471Y-93627180D01*
X204610565Y-93555930D01*
X204337642Y-93520000D01*
X204062358Y-93520000D01*
X203789434Y-93555930D01*
X203523528Y-93627180D01*
X203269212Y-93732520D01*
X203269197Y-93732527D01*
X203030799Y-93870166D01*
X202902312Y-93968757D01*
X202902312Y-93968758D01*
X203837706Y-94904152D01*
X203821058Y-94911049D01*
X203690030Y-94998599D01*
X203578599Y-95110030D01*
X203491049Y-95241058D01*
X203484152Y-95257706D01*
X202548758Y-94322312D01*
X202548757Y-94322312D01*
X202450166Y-94450799D01*
X202312527Y-94689197D01*
X202312520Y-94689212D01*
X202207180Y-94943528D01*
X202135930Y-95209434D01*
X202100000Y-95482358D01*
X175550500Y-95482358D01*
X175550500Y-93374984D01*
X176350001Y-93374984D01*
X176360494Y-93477695D01*
X176415641Y-93644117D01*
X176415643Y-93644122D01*
X176507684Y-93793344D01*
X176631655Y-93917315D01*
X176780877Y-94009356D01*
X176780882Y-94009358D01*
X176947304Y-94064505D01*
X176947311Y-94064506D01*
X177050021Y-94074999D01*
X181299999Y-94074999D01*
X181300000Y-94074998D01*
X181300000Y-88425000D01*
X176350001Y-88425000D01*
X176350001Y-93374984D01*
X175550500Y-93374984D01*
X175550500Y-82975015D01*
X176350000Y-82975015D01*
X176350000Y-87925000D01*
X181300000Y-87925000D01*
X181300000Y-82275000D01*
X181800000Y-82275000D01*
X181800000Y-94074999D01*
X186049970Y-94074999D01*
X186049984Y-94074998D01*
X186159429Y-94063818D01*
X186159645Y-94065939D01*
X186219206Y-94070391D01*
X186275005Y-94112441D01*
X186299212Y-94177983D01*
X186299500Y-94186433D01*
X186299500Y-94879056D01*
X186340423Y-95031783D01*
X186340426Y-95031790D01*
X186419475Y-95168709D01*
X186419478Y-95168713D01*
X186419480Y-95168716D01*
X186531284Y-95280520D01*
X186531286Y-95280521D01*
X186531290Y-95280524D01*
X186618093Y-95330639D01*
X186668216Y-95359577D01*
X186820943Y-95400500D01*
X186979057Y-95400500D01*
X192363331Y-95400500D01*
X192363347Y-95400501D01*
X192370943Y-95400501D01*
X192529054Y-95400501D01*
X192529057Y-95400501D01*
X192681785Y-95359577D01*
X192731904Y-95330639D01*
X192818716Y-95280520D01*
X192930520Y-95168716D01*
X192930520Y-95168714D01*
X192940728Y-95158507D01*
X192940729Y-95158504D01*
X195505519Y-92593716D01*
X195584577Y-92456785D01*
X195625501Y-92304057D01*
X195625501Y-92145943D01*
X195584577Y-91993215D01*
X195505519Y-91856284D01*
X195393716Y-91744481D01*
X194862590Y-91213355D01*
X194862588Y-91213352D01*
X194743717Y-91094481D01*
X194743716Y-91094480D01*
X194656904Y-91044360D01*
X194656904Y-91044359D01*
X194656900Y-91044358D01*
X194606785Y-91015423D01*
X194454057Y-90974499D01*
X194295943Y-90974499D01*
X194288347Y-90974499D01*
X194288331Y-90974500D01*
X193515638Y-90974500D01*
X193506448Y-90971801D01*
X193496956Y-90973085D01*
X193473465Y-90962116D01*
X193448599Y-90954815D01*
X193440641Y-90946790D01*
X193433648Y-90943525D01*
X193412309Y-90918218D01*
X193410761Y-90916657D01*
X193410409Y-90916099D01*
X193342712Y-90806344D01*
X193338548Y-90802180D01*
X193331595Y-90791157D01*
X193323768Y-90763645D01*
X193313066Y-90737121D01*
X193314329Y-90730468D01*
X193312476Y-90723954D01*
X193320766Y-90696577D01*
X193326103Y-90668478D01*
X193332102Y-90659143D01*
X193332726Y-90657083D01*
X193334273Y-90655764D01*
X193339209Y-90648085D01*
X193342703Y-90643664D01*
X193342712Y-90643656D01*
X193434814Y-90494334D01*
X193489953Y-90327934D01*
X193496797Y-90316838D01*
X193498825Y-90307516D01*
X193519970Y-90279268D01*
X193519975Y-90279261D01*
X193526866Y-90272368D01*
X193555520Y-90243716D01*
X193555521Y-90243713D01*
X196833506Y-86965728D01*
X196833511Y-86965724D01*
X196843714Y-86955520D01*
X196843716Y-86955520D01*
X196955520Y-86843716D01*
X196955520Y-86843714D01*
X196965724Y-86833511D01*
X196965728Y-86833506D01*
X201919673Y-81879560D01*
X201980994Y-81846077D01*
X202050686Y-81851061D01*
X202106619Y-81892933D01*
X202125058Y-81928238D01*
X202152095Y-82009828D01*
X202165186Y-82049334D01*
X202257288Y-82198656D01*
X202381344Y-82322712D01*
X202530666Y-82414814D01*
X202697203Y-82469999D01*
X202799991Y-82480500D01*
X205600008Y-82480499D01*
X205702797Y-82469999D01*
X205869334Y-82414814D01*
X206018656Y-82322712D01*
X206142712Y-82198656D01*
X206234814Y-82049334D01*
X206289999Y-81882797D01*
X206300500Y-81780009D01*
X206300499Y-78979992D01*
X206289999Y-78877203D01*
X206234814Y-78710666D01*
X206142712Y-78561344D01*
X206018656Y-78437288D01*
X205869334Y-78345186D01*
X205702797Y-78290001D01*
X205702795Y-78290000D01*
X205600016Y-78279500D01*
X205600009Y-78279500D01*
X203000097Y-78279500D01*
X202933058Y-78259815D01*
X202912416Y-78243181D01*
X202536819Y-77867584D01*
X202503334Y-77806261D01*
X202500500Y-77779903D01*
X202500500Y-74399499D01*
X202520185Y-74332460D01*
X202572989Y-74286705D01*
X202624500Y-74275499D01*
X202697871Y-74275499D01*
X202697872Y-74275499D01*
X202757483Y-74269091D01*
X202892331Y-74218796D01*
X203007546Y-74132546D01*
X203093796Y-74017331D01*
X203144091Y-73882483D01*
X203150500Y-73822873D01*
X203150499Y-71327128D01*
X203144091Y-71267517D01*
X203093796Y-71132669D01*
X203093795Y-71132668D01*
X203093793Y-71132664D01*
X203007547Y-71017455D01*
X203007544Y-71017452D01*
X202892335Y-70931206D01*
X202892328Y-70931202D01*
X202757482Y-70880908D01*
X202757483Y-70880908D01*
X202697883Y-70874501D01*
X202697881Y-70874500D01*
X202697873Y-70874500D01*
X202697864Y-70874500D01*
X201102129Y-70874500D01*
X201102123Y-70874501D01*
X201042516Y-70880908D01*
X200907671Y-70931202D01*
X200907664Y-70931206D01*
X200792455Y-71017452D01*
X200792452Y-71017455D01*
X200706206Y-71132664D01*
X200706202Y-71132671D01*
X200655908Y-71267517D01*
X200649501Y-71327116D01*
X200649501Y-71327123D01*
X200649500Y-71327135D01*
X200649500Y-73822870D01*
X200649501Y-73822876D01*
X200655908Y-73882483D01*
X200706202Y-74017328D01*
X200706206Y-74017335D01*
X200792452Y-74132544D01*
X200792455Y-74132547D01*
X200907664Y-74218793D01*
X200907671Y-74218797D01*
X200952618Y-74235561D01*
X201042517Y-74269091D01*
X201102127Y-74275500D01*
X201175500Y-74275499D01*
X201242538Y-74295183D01*
X201288294Y-74347986D01*
X201299500Y-74399499D01*
X201299500Y-77993330D01*
X201299499Y-77993348D01*
X201299499Y-78159054D01*
X201299498Y-78159054D01*
X201340423Y-78311786D01*
X201340424Y-78311787D01*
X201359707Y-78345186D01*
X201419481Y-78448717D01*
X201538349Y-78567585D01*
X201538355Y-78567590D01*
X202063181Y-79092416D01*
X202096666Y-79153739D01*
X202099500Y-79180097D01*
X202099500Y-79949901D01*
X202079815Y-80016940D01*
X202063181Y-80037582D01*
X196262584Y-85838181D01*
X196201261Y-85871666D01*
X196174903Y-85874500D01*
X193515638Y-85874500D01*
X193506469Y-85871807D01*
X193497001Y-85873091D01*
X193473490Y-85862124D01*
X193448599Y-85854815D01*
X193440655Y-85846807D01*
X193433681Y-85843554D01*
X193412389Y-85818312D01*
X193410785Y-85816695D01*
X193410421Y-85816118D01*
X193342712Y-85706344D01*
X193338391Y-85702023D01*
X193331299Y-85690789D01*
X193323456Y-85663258D01*
X193312745Y-85636707D01*
X193314004Y-85630080D01*
X193312156Y-85623593D01*
X193320443Y-85596188D01*
X193325787Y-85568065D01*
X193331758Y-85558773D01*
X193332381Y-85556715D01*
X193333930Y-85555394D01*
X193338886Y-85547683D01*
X193342314Y-85543346D01*
X193434356Y-85394124D01*
X193434358Y-85394119D01*
X193489505Y-85227697D01*
X193489506Y-85227690D01*
X193499999Y-85124986D01*
X193500000Y-85124973D01*
X193500000Y-85025000D01*
X187900001Y-85025000D01*
X187900001Y-85124986D01*
X187910494Y-85227697D01*
X187965641Y-85394119D01*
X187965643Y-85394124D01*
X188057684Y-85543346D01*
X188061114Y-85547683D01*
X188087254Y-85612479D01*
X188074213Y-85681121D01*
X188061126Y-85701487D01*
X188057297Y-85706330D01*
X187965187Y-85855663D01*
X187965186Y-85855666D01*
X187910001Y-86022203D01*
X187910001Y-86022204D01*
X187910000Y-86022204D01*
X187899500Y-86124983D01*
X187899500Y-86825001D01*
X187899501Y-86825019D01*
X187910000Y-86927796D01*
X187910001Y-86927799D01*
X187922571Y-86965732D01*
X187965186Y-87094334D01*
X188057288Y-87243656D01*
X188057292Y-87243660D01*
X188061116Y-87248497D01*
X188087254Y-87313294D01*
X188074212Y-87381935D01*
X188061122Y-87402305D01*
X188057687Y-87406649D01*
X187965643Y-87555875D01*
X187965641Y-87555880D01*
X187910494Y-87722302D01*
X187910493Y-87722309D01*
X187900000Y-87825013D01*
X187900000Y-87925000D01*
X193499999Y-87925000D01*
X193499999Y-87825028D01*
X193499998Y-87825013D01*
X193489505Y-87722302D01*
X193434358Y-87555880D01*
X193434356Y-87555875D01*
X193342314Y-87406653D01*
X193338886Y-87402317D01*
X193330187Y-87380755D01*
X193317461Y-87361300D01*
X193317361Y-87348963D01*
X193312745Y-87337521D01*
X193317084Y-87314679D01*
X193316897Y-87291433D01*
X193324216Y-87277139D01*
X193325786Y-87268879D01*
X193331299Y-87259211D01*
X193338391Y-87247976D01*
X193342712Y-87243656D01*
X193410421Y-87133881D01*
X193410785Y-87133305D01*
X193436513Y-87110645D01*
X193462047Y-87087679D01*
X193462777Y-87087512D01*
X193463218Y-87087125D01*
X193467044Y-87086543D01*
X193515638Y-87075500D01*
X194725903Y-87075500D01*
X194792942Y-87095185D01*
X194838697Y-87147989D01*
X194848641Y-87217147D01*
X194819616Y-87280703D01*
X194813584Y-87287181D01*
X193675562Y-88425200D01*
X193614239Y-88458685D01*
X193544547Y-88453701D01*
X193500200Y-88425200D01*
X193500000Y-88425000D01*
X187900001Y-88425000D01*
X187900001Y-88524986D01*
X187910494Y-88627697D01*
X187965641Y-88794119D01*
X187965643Y-88794124D01*
X188057684Y-88943346D01*
X188061114Y-88947683D01*
X188087254Y-89012479D01*
X188074213Y-89081121D01*
X188061126Y-89101487D01*
X188057297Y-89106330D01*
X187965187Y-89255663D01*
X187965186Y-89255666D01*
X187910001Y-89422203D01*
X187910001Y-89422204D01*
X187910000Y-89422204D01*
X187899500Y-89524983D01*
X187899500Y-90225001D01*
X187899501Y-90225019D01*
X187910000Y-90327796D01*
X187910001Y-90327799D01*
X187965185Y-90494331D01*
X187965186Y-90494334D01*
X188057287Y-90643655D01*
X188057289Y-90643657D01*
X188060795Y-90648091D01*
X188086934Y-90712887D01*
X188073892Y-90781529D01*
X188060795Y-90801909D01*
X188057289Y-90806342D01*
X187965187Y-90955663D01*
X187965185Y-90955668D01*
X187959839Y-90971801D01*
X187910001Y-91122203D01*
X187910001Y-91122204D01*
X187910000Y-91122204D01*
X187899500Y-91224983D01*
X187899500Y-91925001D01*
X187899501Y-91925019D01*
X187910000Y-92027796D01*
X187910001Y-92027799D01*
X187949151Y-92145943D01*
X187965186Y-92194334D01*
X188057288Y-92343656D01*
X188181344Y-92467712D01*
X188330666Y-92559814D01*
X188497203Y-92614999D01*
X188599991Y-92625500D01*
X192800008Y-92625499D01*
X192902797Y-92614999D01*
X193069334Y-92559814D01*
X193218656Y-92467712D01*
X193342712Y-92343656D01*
X193410099Y-92234402D01*
X193462047Y-92187679D01*
X193515638Y-92175500D01*
X193925903Y-92175500D01*
X193992942Y-92195185D01*
X194038697Y-92247989D01*
X194048641Y-92317147D01*
X194019616Y-92380703D01*
X194013584Y-92387181D01*
X192237584Y-94163181D01*
X192176261Y-94196666D01*
X192149903Y-94199500D01*
X187624500Y-94199500D01*
X187557461Y-94179815D01*
X187511706Y-94127011D01*
X187500500Y-94075500D01*
X187500500Y-84425013D01*
X187900000Y-84425013D01*
X187900000Y-84525000D01*
X190450000Y-84525000D01*
X190950000Y-84525000D01*
X193499999Y-84525000D01*
X193499999Y-84425028D01*
X193499998Y-84425013D01*
X193489505Y-84322302D01*
X193434358Y-84155880D01*
X193434356Y-84155875D01*
X193342315Y-84006654D01*
X193218345Y-83882684D01*
X193069124Y-83790643D01*
X193069119Y-83790641D01*
X192902697Y-83735494D01*
X192902690Y-83735493D01*
X192799986Y-83725000D01*
X190950000Y-83725000D01*
X190950000Y-84525000D01*
X190450000Y-84525000D01*
X190450000Y-83725000D01*
X188600028Y-83725000D01*
X188600012Y-83725001D01*
X188497302Y-83735494D01*
X188330880Y-83790641D01*
X188330875Y-83790643D01*
X188181654Y-83882684D01*
X188057684Y-84006654D01*
X187965643Y-84155875D01*
X187965641Y-84155880D01*
X187910494Y-84322302D01*
X187910493Y-84322309D01*
X187900000Y-84425013D01*
X187500500Y-84425013D01*
X187500500Y-78675097D01*
X187520185Y-78608058D01*
X187536819Y-78587416D01*
X190737416Y-75386819D01*
X190798739Y-75353334D01*
X190825097Y-75350500D01*
X191025545Y-75350500D01*
X191092584Y-75370185D01*
X191138339Y-75422989D01*
X191148283Y-75492147D01*
X191119258Y-75555703D01*
X191105210Y-75568939D01*
X191102079Y-75572070D01*
X191005899Y-75697413D01*
X190945444Y-75843368D01*
X190937987Y-75900000D01*
X191445500Y-75900000D01*
X191454185Y-75902550D01*
X191463146Y-75901262D01*
X191487184Y-75912240D01*
X191512539Y-75919685D01*
X191518466Y-75926526D01*
X191526702Y-75930287D01*
X191540990Y-75952520D01*
X191558294Y-75972489D01*
X191560581Y-75983002D01*
X191564477Y-75989064D01*
X191569500Y-76023999D01*
X191569501Y-76175999D01*
X191549817Y-76243039D01*
X191497013Y-76288794D01*
X191445501Y-76300000D01*
X190937990Y-76300000D01*
X190937988Y-76300001D01*
X190945442Y-76356627D01*
X190945444Y-76356633D01*
X191005899Y-76502585D01*
X191102075Y-76627924D01*
X191227413Y-76724100D01*
X191373365Y-76784554D01*
X191373369Y-76784555D01*
X191460000Y-76795961D01*
X191460000Y-76626431D01*
X191466336Y-76604852D01*
X191468070Y-76582429D01*
X191475990Y-76571975D01*
X191479685Y-76559392D01*
X191496681Y-76544664D01*
X191510263Y-76526738D01*
X191522577Y-76522225D01*
X191532489Y-76513637D01*
X191554748Y-76510436D01*
X191575866Y-76502698D01*
X191588665Y-76505559D01*
X191601647Y-76503693D01*
X191622105Y-76513036D01*
X191644053Y-76517943D01*
X191656701Y-76528835D01*
X191665203Y-76532718D01*
X191672185Y-76539256D01*
X191677641Y-76544775D01*
X191741718Y-76628282D01*
X191818224Y-76686987D01*
X191824185Y-76693017D01*
X191836889Y-76716605D01*
X191852689Y-76738243D01*
X191854672Y-76749623D01*
X191857316Y-76754532D01*
X191856766Y-76761638D01*
X191860000Y-76780192D01*
X191860000Y-76795959D01*
X191860001Y-76795960D01*
X191946622Y-76784558D01*
X191946917Y-76784479D01*
X191947222Y-76784478D01*
X191954690Y-76783496D01*
X191954819Y-76784478D01*
X192005115Y-76784476D01*
X192005180Y-76783983D01*
X192008925Y-76784476D01*
X192011121Y-76784476D01*
X192013230Y-76785040D01*
X192013238Y-76785044D01*
X192130639Y-76800500D01*
X192469360Y-76800499D01*
X192469363Y-76800499D01*
X192586753Y-76785046D01*
X192586757Y-76785044D01*
X192586762Y-76785044D01*
X192732841Y-76724536D01*
X192858282Y-76628282D01*
X192954536Y-76502841D01*
X193015044Y-76356762D01*
X193030500Y-76239361D01*
X193030499Y-75960640D01*
X193030499Y-75960639D01*
X193030499Y-75960636D01*
X193015046Y-75843246D01*
X193015044Y-75843241D01*
X193015044Y-75843238D01*
X192954536Y-75697159D01*
X192954535Y-75697158D01*
X192954535Y-75697157D01*
X192926124Y-75660131D01*
X192900930Y-75594962D01*
X192900500Y-75584645D01*
X192900500Y-68234499D01*
X192920185Y-68167460D01*
X192972989Y-68121705D01*
X193024500Y-68110499D01*
X194742871Y-68110499D01*
X194742872Y-68110499D01*
X194802483Y-68104091D01*
X194937331Y-68053796D01*
X195052546Y-67967546D01*
X195138796Y-67852331D01*
X195189091Y-67717483D01*
X195195500Y-67657873D01*
X195195499Y-62542128D01*
X195189091Y-62482517D01*
X195138796Y-62347669D01*
X195138795Y-62347668D01*
X195138793Y-62347664D01*
X195052547Y-62232455D01*
X195052544Y-62232452D01*
X194937335Y-62146206D01*
X194937328Y-62146202D01*
X194802482Y-62095908D01*
X194802483Y-62095908D01*
X194742883Y-62089501D01*
X194742881Y-62089500D01*
X194742873Y-62089500D01*
X194742864Y-62089500D01*
X192627129Y-62089500D01*
X192627123Y-62089501D01*
X192567516Y-62095908D01*
X192432671Y-62146202D01*
X192432664Y-62146206D01*
X192317455Y-62232452D01*
X192317452Y-62232455D01*
X192231206Y-62347664D01*
X192231202Y-62347671D01*
X192180908Y-62482517D01*
X192174501Y-62542116D01*
X192174501Y-62542123D01*
X192174500Y-62542135D01*
X192174500Y-65709902D01*
X192154815Y-65776941D01*
X192138181Y-65797583D01*
X191819481Y-66116282D01*
X191819479Y-66116285D01*
X191769361Y-66203094D01*
X191769359Y-66203096D01*
X191740425Y-66253209D01*
X191740424Y-66253210D01*
X191740423Y-66253215D01*
X191699499Y-66405943D01*
X191699499Y-66405945D01*
X191699499Y-66574046D01*
X191699500Y-66574059D01*
X191699500Y-74025500D01*
X191679815Y-74092539D01*
X191627011Y-74138294D01*
X191575500Y-74149500D01*
X190604057Y-74149500D01*
X190445943Y-74149500D01*
X190293215Y-74190423D01*
X190293214Y-74190423D01*
X190293212Y-74190424D01*
X190293209Y-74190425D01*
X190244073Y-74218795D01*
X190244072Y-74218796D01*
X190200178Y-74244138D01*
X190156285Y-74269479D01*
X190156282Y-74269481D01*
X186419481Y-78006282D01*
X186419479Y-78006285D01*
X186369361Y-78093094D01*
X186369359Y-78093096D01*
X186340425Y-78143209D01*
X186340424Y-78143210D01*
X186340423Y-78143215D01*
X186299499Y-78295943D01*
X186299499Y-78295945D01*
X186299499Y-78464046D01*
X186299500Y-78464059D01*
X186299500Y-82163566D01*
X186279815Y-82230605D01*
X186227011Y-82276360D01*
X186159439Y-82286075D01*
X186159429Y-82286182D01*
X186159003Y-82286138D01*
X186157853Y-82286304D01*
X186154152Y-82285642D01*
X186049984Y-82275000D01*
X181800000Y-82275000D01*
X181300000Y-82275000D01*
X177050030Y-82275000D01*
X177050014Y-82275001D01*
X176947304Y-82285494D01*
X176780882Y-82340641D01*
X176780877Y-82340643D01*
X176631655Y-82432684D01*
X176507684Y-82556655D01*
X176415643Y-82705877D01*
X176415641Y-82705882D01*
X176360494Y-82872304D01*
X176360493Y-82872311D01*
X176350000Y-82975015D01*
X175550500Y-82975015D01*
X175550500Y-63481154D01*
X186995000Y-63481154D01*
X186995000Y-64850000D01*
X187995000Y-64850000D01*
X187995000Y-65350000D01*
X186995000Y-65350000D01*
X186995000Y-66718845D01*
X187032181Y-66953593D01*
X187032181Y-66953596D01*
X187105629Y-67179641D01*
X187213532Y-67391412D01*
X187353239Y-67583700D01*
X187353239Y-67583701D01*
X187521298Y-67751760D01*
X187713587Y-67891467D01*
X187925358Y-67999370D01*
X188151406Y-68072818D01*
X188255000Y-68089226D01*
X188255000Y-67044560D01*
X188308147Y-67075245D01*
X188437857Y-67110000D01*
X188572143Y-67110000D01*
X188701853Y-67075245D01*
X188755000Y-67044560D01*
X188755000Y-68089225D01*
X188858593Y-68072818D01*
X189084641Y-67999370D01*
X189296412Y-67891467D01*
X189488700Y-67751760D01*
X189488701Y-67751760D01*
X189656760Y-67583701D01*
X189656760Y-67583700D01*
X189796467Y-67391412D01*
X189904370Y-67179641D01*
X189977818Y-66953596D01*
X189977818Y-66953593D01*
X190015000Y-66718845D01*
X190015000Y-65350000D01*
X189015000Y-65350000D01*
X189015000Y-64850000D01*
X190015000Y-64850000D01*
X190015000Y-63481154D01*
X189977818Y-63246406D01*
X189977818Y-63246403D01*
X189904370Y-63020358D01*
X189796467Y-62808587D01*
X189656760Y-62616299D01*
X189656760Y-62616298D01*
X189488701Y-62448239D01*
X189296412Y-62308532D01*
X189084641Y-62200629D01*
X188858589Y-62127180D01*
X188858590Y-62127180D01*
X188755000Y-62110773D01*
X188755000Y-63155439D01*
X188701853Y-63124755D01*
X188572143Y-63090000D01*
X188437857Y-63090000D01*
X188308147Y-63124755D01*
X188255000Y-63155439D01*
X188255000Y-62110773D01*
X188151410Y-62127180D01*
X187925358Y-62200629D01*
X187713587Y-62308532D01*
X187521299Y-62448239D01*
X187521298Y-62448239D01*
X187353239Y-62616298D01*
X187353239Y-62616299D01*
X187213532Y-62808587D01*
X187105629Y-63020358D01*
X187032181Y-63246403D01*
X187032181Y-63246406D01*
X186995000Y-63481154D01*
X175550500Y-63481154D01*
X175550500Y-60900638D01*
X196099500Y-60900638D01*
X196099500Y-61239363D01*
X196114953Y-61356753D01*
X196114956Y-61356762D01*
X196175464Y-61502841D01*
X196271718Y-61628282D01*
X196397159Y-61724536D01*
X196543238Y-61785044D01*
X196642660Y-61798133D01*
X196706555Y-61826398D01*
X196714154Y-61833389D01*
X199393784Y-64513020D01*
X199393786Y-64513021D01*
X199393790Y-64513024D01*
X199530709Y-64592073D01*
X199530716Y-64592077D01*
X199683443Y-64633001D01*
X199683445Y-64633001D01*
X199849154Y-64633001D01*
X199849170Y-64633000D01*
X201125501Y-64633000D01*
X201192540Y-64652685D01*
X201238295Y-64705489D01*
X201249501Y-64757000D01*
X201249501Y-65580376D01*
X201255908Y-65639983D01*
X201306202Y-65774828D01*
X201306206Y-65774835D01*
X201392452Y-65890044D01*
X201392455Y-65890047D01*
X201507664Y-65976293D01*
X201507671Y-65976297D01*
X201642517Y-66026591D01*
X201642516Y-66026591D01*
X201649444Y-66027335D01*
X201702127Y-66033000D01*
X204349902Y-66032999D01*
X204416941Y-66052684D01*
X204437583Y-66069318D01*
X206763181Y-68394916D01*
X206796666Y-68456239D01*
X206799500Y-68482597D01*
X206799500Y-70750500D01*
X206779815Y-70817539D01*
X206727011Y-70863294D01*
X206675502Y-70874500D01*
X206602130Y-70874500D01*
X206602123Y-70874501D01*
X206542516Y-70880908D01*
X206407671Y-70931202D01*
X206407664Y-70931206D01*
X206292455Y-71017452D01*
X206292452Y-71017455D01*
X206206206Y-71132664D01*
X206206202Y-71132671D01*
X206155908Y-71267517D01*
X206149501Y-71327116D01*
X206149501Y-71327123D01*
X206149500Y-71327135D01*
X206149500Y-73822870D01*
X206149501Y-73822876D01*
X206155908Y-73882483D01*
X206206202Y-74017328D01*
X206206206Y-74017335D01*
X206292452Y-74132544D01*
X206292455Y-74132547D01*
X206407664Y-74218793D01*
X206407671Y-74218797D01*
X206542517Y-74269091D01*
X206542516Y-74269091D01*
X206546135Y-74269480D01*
X206602127Y-74275500D01*
X208197872Y-74275499D01*
X208257483Y-74269091D01*
X208392331Y-74218796D01*
X208507546Y-74132546D01*
X208593796Y-74017331D01*
X208644091Y-73882483D01*
X208650500Y-73822873D01*
X208650499Y-71327128D01*
X208644091Y-71267517D01*
X208593796Y-71132669D01*
X208593795Y-71132668D01*
X208593793Y-71132664D01*
X208507547Y-71017455D01*
X208507544Y-71017452D01*
X208392335Y-70931206D01*
X208392328Y-70931202D01*
X208257482Y-70880908D01*
X208257483Y-70880908D01*
X208197883Y-70874501D01*
X208197881Y-70874500D01*
X208197873Y-70874500D01*
X208197865Y-70874500D01*
X208124500Y-70874500D01*
X208057461Y-70854815D01*
X208011706Y-70802011D01*
X208000500Y-70750500D01*
X208000500Y-68103445D01*
X208000500Y-68103443D01*
X207959577Y-67950716D01*
X207959577Y-67950715D01*
X207959577Y-67950714D01*
X207930639Y-67900595D01*
X207930637Y-67900592D01*
X207925369Y-67891467D01*
X207880520Y-67813784D01*
X207768716Y-67701980D01*
X207768715Y-67701979D01*
X207764385Y-67697649D01*
X207764374Y-67697639D01*
X205286818Y-65220083D01*
X205253333Y-65158760D01*
X205250499Y-65132402D01*
X205250499Y-62484629D01*
X205250498Y-62484623D01*
X205250497Y-62484616D01*
X205244091Y-62425017D01*
X205215240Y-62347664D01*
X205193797Y-62290171D01*
X205193793Y-62290164D01*
X205107547Y-62174955D01*
X205107544Y-62174952D01*
X204992335Y-62088706D01*
X204992328Y-62088702D01*
X204857482Y-62038408D01*
X204857483Y-62038408D01*
X204797883Y-62032001D01*
X204797881Y-62032000D01*
X204797873Y-62032000D01*
X204797865Y-62032000D01*
X204451238Y-62032000D01*
X204384199Y-62012315D01*
X204338444Y-61959511D01*
X204328500Y-61890353D01*
X204357525Y-61826797D01*
X204375751Y-61809625D01*
X204476365Y-61732419D01*
X204476365Y-61732417D01*
X203668900Y-60924953D01*
X203807780Y-60832157D01*
X203929657Y-60710280D01*
X204022452Y-60571400D01*
X204829917Y-61378865D01*
X204829919Y-61378865D01*
X204916499Y-61266034D01*
X204916511Y-61266016D01*
X205047590Y-61038982D01*
X205047595Y-61038971D01*
X205147924Y-60796755D01*
X205215777Y-60543520D01*
X205215779Y-60543509D01*
X205249999Y-60283594D01*
X205250000Y-60283580D01*
X205250000Y-60021419D01*
X205249999Y-60021405D01*
X205215779Y-59761490D01*
X205215777Y-59761479D01*
X205147924Y-59508244D01*
X205047595Y-59266028D01*
X205047590Y-59266017D01*
X204916511Y-59038983D01*
X204916505Y-59038975D01*
X204829918Y-58926133D01*
X204829917Y-58926133D01*
X204022452Y-59733598D01*
X203929657Y-59594720D01*
X203807780Y-59472843D01*
X203668899Y-59380045D01*
X204476365Y-58572580D01*
X204363524Y-58485994D01*
X204363516Y-58485988D01*
X204136482Y-58354909D01*
X204136471Y-58354904D01*
X203894255Y-58254575D01*
X203641020Y-58186722D01*
X203641009Y-58186720D01*
X203381094Y-58152500D01*
X203118905Y-58152500D01*
X202858990Y-58186720D01*
X202858979Y-58186722D01*
X202605744Y-58254575D01*
X202363528Y-58354904D01*
X202363517Y-58354909D01*
X202136471Y-58485996D01*
X202023633Y-58572579D01*
X202023633Y-58572580D01*
X202831099Y-59380046D01*
X202692220Y-59472843D01*
X202570343Y-59594720D01*
X202477546Y-59733599D01*
X201670080Y-58926133D01*
X201670079Y-58926133D01*
X201583496Y-59038971D01*
X201452409Y-59266017D01*
X201452404Y-59266028D01*
X201352075Y-59508244D01*
X201284222Y-59761479D01*
X201284220Y-59761490D01*
X201250000Y-60021405D01*
X201250000Y-60283594D01*
X201284220Y-60543509D01*
X201284222Y-60543520D01*
X201352075Y-60796755D01*
X201452404Y-61038971D01*
X201452409Y-61038982D01*
X201583488Y-61266016D01*
X201583494Y-61266024D01*
X201670080Y-61378865D01*
X202477546Y-60571399D01*
X202570343Y-60710280D01*
X202692220Y-60832157D01*
X202831099Y-60924952D01*
X202023633Y-61732417D01*
X202023633Y-61732418D01*
X202124249Y-61809624D01*
X202165451Y-61866052D01*
X202169606Y-61935798D01*
X202135393Y-61996719D01*
X202073676Y-62029471D01*
X202048762Y-62032000D01*
X201702130Y-62032000D01*
X201702123Y-62032001D01*
X201642516Y-62038408D01*
X201507671Y-62088702D01*
X201507664Y-62088706D01*
X201392455Y-62174952D01*
X201392452Y-62174955D01*
X201306206Y-62290164D01*
X201306202Y-62290171D01*
X201255908Y-62425017D01*
X201253412Y-62448239D01*
X201249501Y-62484623D01*
X201249500Y-62484635D01*
X201249500Y-63308000D01*
X201229815Y-63375039D01*
X201177011Y-63420794D01*
X201125500Y-63432000D01*
X200062598Y-63432000D01*
X199995559Y-63412315D01*
X199974917Y-63395681D01*
X197533390Y-60954154D01*
X197522763Y-60934693D01*
X197508248Y-60917923D01*
X197502318Y-60897250D01*
X197499905Y-60892831D01*
X197498323Y-60884053D01*
X197498229Y-60883401D01*
X197485044Y-60783238D01*
X197483271Y-60778959D01*
X197481502Y-60766603D01*
X197484477Y-60745992D01*
X197484477Y-60724817D01*
X197483495Y-60724688D01*
X197484477Y-60717229D01*
X197484477Y-60716923D01*
X197484556Y-60716627D01*
X197495961Y-60630000D01*
X197480193Y-60630000D01*
X197451084Y-60621452D01*
X197421394Y-60615173D01*
X197417020Y-60611450D01*
X197413154Y-60610315D01*
X197393018Y-60594185D01*
X197386983Y-60588219D01*
X197328282Y-60511718D01*
X197244780Y-60447645D01*
X197239257Y-60442185D01*
X197225949Y-60418143D01*
X197209743Y-60395948D01*
X197209270Y-60388010D01*
X197205420Y-60381055D01*
X197207222Y-60353636D01*
X197205588Y-60326202D01*
X197209481Y-60319269D01*
X197210003Y-60311336D01*
X197226344Y-60289242D01*
X197239801Y-60265281D01*
X197246823Y-60261554D01*
X197251551Y-60255163D01*
X197277242Y-60245411D01*
X197301518Y-60232529D01*
X197314711Y-60231189D01*
X197316874Y-60230369D01*
X197318794Y-60230775D01*
X197326432Y-60230000D01*
X197495959Y-60230000D01*
X197495960Y-60229998D01*
X197484557Y-60143372D01*
X197484556Y-60143369D01*
X197452015Y-60064807D01*
X197452014Y-60064805D01*
X197424100Y-59997413D01*
X197327924Y-59872075D01*
X197202586Y-59775899D01*
X197056631Y-59715444D01*
X197000000Y-59707987D01*
X197000000Y-60215500D01*
X196997449Y-60224185D01*
X196998738Y-60233147D01*
X196987759Y-60257187D01*
X196980315Y-60282539D01*
X196973474Y-60288466D01*
X196969713Y-60296703D01*
X196947478Y-60310992D01*
X196927511Y-60328294D01*
X196916996Y-60330581D01*
X196910935Y-60334477D01*
X196876000Y-60339500D01*
X196724000Y-60339500D01*
X196656961Y-60319815D01*
X196611206Y-60267011D01*
X196600000Y-60215500D01*
X196600000Y-59707987D01*
X196543368Y-59715444D01*
X196397413Y-59775899D01*
X196272075Y-59872075D01*
X196175899Y-59997413D01*
X196115445Y-60143365D01*
X196115444Y-60143369D01*
X196104038Y-60230000D01*
X196273568Y-60230000D01*
X196295146Y-60236336D01*
X196317570Y-60238070D01*
X196328023Y-60245990D01*
X196340607Y-60249685D01*
X196355334Y-60266681D01*
X196373261Y-60280263D01*
X196377773Y-60292577D01*
X196386362Y-60302489D01*
X196389562Y-60324748D01*
X196397301Y-60345866D01*
X196394439Y-60358665D01*
X196396306Y-60371647D01*
X196386962Y-60392105D01*
X196382056Y-60414053D01*
X196371162Y-60426702D01*
X196367281Y-60435203D01*
X196360743Y-60442185D01*
X196355219Y-60447645D01*
X196271718Y-60511718D01*
X196213016Y-60588219D01*
X196206982Y-60594185D01*
X196183392Y-60606889D01*
X196161755Y-60622689D01*
X196150375Y-60624672D01*
X196145467Y-60627316D01*
X196138359Y-60626766D01*
X196119807Y-60630000D01*
X196104041Y-60630000D01*
X196104039Y-60630001D01*
X196115442Y-60716628D01*
X196115525Y-60716935D01*
X196115525Y-60717251D01*
X196116504Y-60724689D01*
X196115525Y-60724817D01*
X196115526Y-60775116D01*
X196116017Y-60775181D01*
X196115526Y-60778903D01*
X196115527Y-60781106D01*
X196114956Y-60783235D01*
X196099500Y-60900638D01*
X175550500Y-60900638D01*
X175550500Y-56649500D01*
X175570185Y-56582461D01*
X175622989Y-56536706D01*
X175674500Y-56525500D01*
X212000500Y-56525500D01*
X212067539Y-56545185D01*
G37*
%TD.AperFunction*%
%TD*%
M02*
