%TF.GenerationSoftware,KiCad,Pcbnew,10.0.1*%
%TF.CreationDate,2026-04-24T15:48:41+05:30*%
%TF.ProjectId,IR_Sensor_Module,49525f53-656e-4736-9f72-5f4d6f64756c,rev?*%
%TF.SameCoordinates,Original*%
%TF.FileFunction,Legend,Bot*%
%TF.FilePolarity,Positive*%
%FSLAX46Y46*%
G04 Gerber Fmt 4.6, Leading zero omitted, Abs format (unit mm)*
G04 Created by KiCad (PCBNEW 10.0.1) date 2026-04-24 15:48:41*
%MOMM*%
%LPD*%
G01*
G04 APERTURE LIST*
%ADD10C,0.100000*%
%ADD11C,0.150000*%
%ADD12C,0.120000*%
G04 APERTURE END LIST*
D10*
X161766115Y-81562419D02*
X161766115Y-80562419D01*
X160718497Y-81562419D02*
X161051830Y-81086228D01*
X161289925Y-81562419D02*
X161289925Y-80562419D01*
X161289925Y-80562419D02*
X160908973Y-80562419D01*
X160908973Y-80562419D02*
X160813735Y-80610038D01*
X160813735Y-80610038D02*
X160766116Y-80657657D01*
X160766116Y-80657657D02*
X160718497Y-80752895D01*
X160718497Y-80752895D02*
X160718497Y-80895752D01*
X160718497Y-80895752D02*
X160766116Y-80990990D01*
X160766116Y-80990990D02*
X160813735Y-81038609D01*
X160813735Y-81038609D02*
X160908973Y-81086228D01*
X160908973Y-81086228D02*
X161289925Y-81086228D01*
X159575639Y-81514800D02*
X159432782Y-81562419D01*
X159432782Y-81562419D02*
X159194687Y-81562419D01*
X159194687Y-81562419D02*
X159099449Y-81514800D01*
X159099449Y-81514800D02*
X159051830Y-81467180D01*
X159051830Y-81467180D02*
X159004211Y-81371942D01*
X159004211Y-81371942D02*
X159004211Y-81276704D01*
X159004211Y-81276704D02*
X159051830Y-81181466D01*
X159051830Y-81181466D02*
X159099449Y-81133847D01*
X159099449Y-81133847D02*
X159194687Y-81086228D01*
X159194687Y-81086228D02*
X159385163Y-81038609D01*
X159385163Y-81038609D02*
X159480401Y-80990990D01*
X159480401Y-80990990D02*
X159528020Y-80943371D01*
X159528020Y-80943371D02*
X159575639Y-80848133D01*
X159575639Y-80848133D02*
X159575639Y-80752895D01*
X159575639Y-80752895D02*
X159528020Y-80657657D01*
X159528020Y-80657657D02*
X159480401Y-80610038D01*
X159480401Y-80610038D02*
X159385163Y-80562419D01*
X159385163Y-80562419D02*
X159147068Y-80562419D01*
X159147068Y-80562419D02*
X159004211Y-80610038D01*
X158575639Y-81038609D02*
X158242306Y-81038609D01*
X158099449Y-81562419D02*
X158575639Y-81562419D01*
X158575639Y-81562419D02*
X158575639Y-80562419D01*
X158575639Y-80562419D02*
X158099449Y-80562419D01*
X157670877Y-81562419D02*
X157670877Y-80562419D01*
X157670877Y-80562419D02*
X157099449Y-81562419D01*
X157099449Y-81562419D02*
X157099449Y-80562419D01*
X156670877Y-81514800D02*
X156528020Y-81562419D01*
X156528020Y-81562419D02*
X156289925Y-81562419D01*
X156289925Y-81562419D02*
X156194687Y-81514800D01*
X156194687Y-81514800D02*
X156147068Y-81467180D01*
X156147068Y-81467180D02*
X156099449Y-81371942D01*
X156099449Y-81371942D02*
X156099449Y-81276704D01*
X156099449Y-81276704D02*
X156147068Y-81181466D01*
X156147068Y-81181466D02*
X156194687Y-81133847D01*
X156194687Y-81133847D02*
X156289925Y-81086228D01*
X156289925Y-81086228D02*
X156480401Y-81038609D01*
X156480401Y-81038609D02*
X156575639Y-80990990D01*
X156575639Y-80990990D02*
X156623258Y-80943371D01*
X156623258Y-80943371D02*
X156670877Y-80848133D01*
X156670877Y-80848133D02*
X156670877Y-80752895D01*
X156670877Y-80752895D02*
X156623258Y-80657657D01*
X156623258Y-80657657D02*
X156575639Y-80610038D01*
X156575639Y-80610038D02*
X156480401Y-80562419D01*
X156480401Y-80562419D02*
X156242306Y-80562419D01*
X156242306Y-80562419D02*
X156099449Y-80610038D01*
X155480401Y-80562419D02*
X155289925Y-80562419D01*
X155289925Y-80562419D02*
X155194687Y-80610038D01*
X155194687Y-80610038D02*
X155099449Y-80705276D01*
X155099449Y-80705276D02*
X155051830Y-80895752D01*
X155051830Y-80895752D02*
X155051830Y-81229085D01*
X155051830Y-81229085D02*
X155099449Y-81419561D01*
X155099449Y-81419561D02*
X155194687Y-81514800D01*
X155194687Y-81514800D02*
X155289925Y-81562419D01*
X155289925Y-81562419D02*
X155480401Y-81562419D01*
X155480401Y-81562419D02*
X155575639Y-81514800D01*
X155575639Y-81514800D02*
X155670877Y-81419561D01*
X155670877Y-81419561D02*
X155718496Y-81229085D01*
X155718496Y-81229085D02*
X155718496Y-80895752D01*
X155718496Y-80895752D02*
X155670877Y-80705276D01*
X155670877Y-80705276D02*
X155575639Y-80610038D01*
X155575639Y-80610038D02*
X155480401Y-80562419D01*
X154051830Y-81562419D02*
X154385163Y-81086228D01*
X154623258Y-81562419D02*
X154623258Y-80562419D01*
X154623258Y-80562419D02*
X154242306Y-80562419D01*
X154242306Y-80562419D02*
X154147068Y-80610038D01*
X154147068Y-80610038D02*
X154099449Y-80657657D01*
X154099449Y-80657657D02*
X154051830Y-80752895D01*
X154051830Y-80752895D02*
X154051830Y-80895752D01*
X154051830Y-80895752D02*
X154099449Y-80990990D01*
X154099449Y-80990990D02*
X154147068Y-81038609D01*
X154147068Y-81038609D02*
X154242306Y-81086228D01*
X154242306Y-81086228D02*
X154623258Y-81086228D01*
X152861353Y-81562419D02*
X152861353Y-80562419D01*
X152861353Y-80562419D02*
X152528020Y-81276704D01*
X152528020Y-81276704D02*
X152194687Y-80562419D01*
X152194687Y-80562419D02*
X152194687Y-81562419D01*
X151528020Y-80562419D02*
X151337544Y-80562419D01*
X151337544Y-80562419D02*
X151242306Y-80610038D01*
X151242306Y-80610038D02*
X151147068Y-80705276D01*
X151147068Y-80705276D02*
X151099449Y-80895752D01*
X151099449Y-80895752D02*
X151099449Y-81229085D01*
X151099449Y-81229085D02*
X151147068Y-81419561D01*
X151147068Y-81419561D02*
X151242306Y-81514800D01*
X151242306Y-81514800D02*
X151337544Y-81562419D01*
X151337544Y-81562419D02*
X151528020Y-81562419D01*
X151528020Y-81562419D02*
X151623258Y-81514800D01*
X151623258Y-81514800D02*
X151718496Y-81419561D01*
X151718496Y-81419561D02*
X151766115Y-81229085D01*
X151766115Y-81229085D02*
X151766115Y-80895752D01*
X151766115Y-80895752D02*
X151718496Y-80705276D01*
X151718496Y-80705276D02*
X151623258Y-80610038D01*
X151623258Y-80610038D02*
X151528020Y-80562419D01*
X150670877Y-81562419D02*
X150670877Y-80562419D01*
X150670877Y-80562419D02*
X150432782Y-80562419D01*
X150432782Y-80562419D02*
X150289925Y-80610038D01*
X150289925Y-80610038D02*
X150194687Y-80705276D01*
X150194687Y-80705276D02*
X150147068Y-80800514D01*
X150147068Y-80800514D02*
X150099449Y-80990990D01*
X150099449Y-80990990D02*
X150099449Y-81133847D01*
X150099449Y-81133847D02*
X150147068Y-81324323D01*
X150147068Y-81324323D02*
X150194687Y-81419561D01*
X150194687Y-81419561D02*
X150289925Y-81514800D01*
X150289925Y-81514800D02*
X150432782Y-81562419D01*
X150432782Y-81562419D02*
X150670877Y-81562419D01*
X149670877Y-80562419D02*
X149670877Y-81371942D01*
X149670877Y-81371942D02*
X149623258Y-81467180D01*
X149623258Y-81467180D02*
X149575639Y-81514800D01*
X149575639Y-81514800D02*
X149480401Y-81562419D01*
X149480401Y-81562419D02*
X149289925Y-81562419D01*
X149289925Y-81562419D02*
X149194687Y-81514800D01*
X149194687Y-81514800D02*
X149147068Y-81467180D01*
X149147068Y-81467180D02*
X149099449Y-81371942D01*
X149099449Y-81371942D02*
X149099449Y-80562419D01*
X148147068Y-81562419D02*
X148623258Y-81562419D01*
X148623258Y-81562419D02*
X148623258Y-80562419D01*
X147813734Y-81038609D02*
X147480401Y-81038609D01*
X147337544Y-81562419D02*
X147813734Y-81562419D01*
X147813734Y-81562419D02*
X147813734Y-80562419D01*
X147813734Y-80562419D02*
X147337544Y-80562419D01*
D11*
X142539819Y-74208095D02*
X143349342Y-74208095D01*
X143349342Y-74208095D02*
X143444580Y-74255714D01*
X143444580Y-74255714D02*
X143492200Y-74303333D01*
X143492200Y-74303333D02*
X143539819Y-74398571D01*
X143539819Y-74398571D02*
X143539819Y-74589047D01*
X143539819Y-74589047D02*
X143492200Y-74684285D01*
X143492200Y-74684285D02*
X143444580Y-74731904D01*
X143444580Y-74731904D02*
X143349342Y-74779523D01*
X143349342Y-74779523D02*
X142539819Y-74779523D01*
X143539819Y-75779523D02*
X143539819Y-75208095D01*
X143539819Y-75493809D02*
X142539819Y-75493809D01*
X142539819Y-75493809D02*
X142682676Y-75398571D01*
X142682676Y-75398571D02*
X142777914Y-75303333D01*
X142777914Y-75303333D02*
X142825533Y-75208095D01*
X160943333Y-76034819D02*
X160943333Y-76749104D01*
X160943333Y-76749104D02*
X160990952Y-76891961D01*
X160990952Y-76891961D02*
X161086190Y-76987200D01*
X161086190Y-76987200D02*
X161229047Y-77034819D01*
X161229047Y-77034819D02*
X161324285Y-77034819D01*
X159943333Y-77034819D02*
X160514761Y-77034819D01*
X160229047Y-77034819D02*
X160229047Y-76034819D01*
X160229047Y-76034819D02*
X160324285Y-76177676D01*
X160324285Y-76177676D02*
X160419523Y-76272914D01*
X160419523Y-76272914D02*
X160514761Y-76320533D01*
X134844819Y-74543333D02*
X134368628Y-74210000D01*
X134844819Y-73971905D02*
X133844819Y-73971905D01*
X133844819Y-73971905D02*
X133844819Y-74352857D01*
X133844819Y-74352857D02*
X133892438Y-74448095D01*
X133892438Y-74448095D02*
X133940057Y-74495714D01*
X133940057Y-74495714D02*
X134035295Y-74543333D01*
X134035295Y-74543333D02*
X134178152Y-74543333D01*
X134178152Y-74543333D02*
X134273390Y-74495714D01*
X134273390Y-74495714D02*
X134321009Y-74448095D01*
X134321009Y-74448095D02*
X134368628Y-74352857D01*
X134368628Y-74352857D02*
X134368628Y-73971905D01*
X133844819Y-74876667D02*
X133844819Y-75495714D01*
X133844819Y-75495714D02*
X134225771Y-75162381D01*
X134225771Y-75162381D02*
X134225771Y-75305238D01*
X134225771Y-75305238D02*
X134273390Y-75400476D01*
X134273390Y-75400476D02*
X134321009Y-75448095D01*
X134321009Y-75448095D02*
X134416247Y-75495714D01*
X134416247Y-75495714D02*
X134654342Y-75495714D01*
X134654342Y-75495714D02*
X134749580Y-75448095D01*
X134749580Y-75448095D02*
X134797200Y-75400476D01*
X134797200Y-75400476D02*
X134844819Y-75305238D01*
X134844819Y-75305238D02*
X134844819Y-75019524D01*
X134844819Y-75019524D02*
X134797200Y-74924286D01*
X134797200Y-74924286D02*
X134749580Y-74876667D01*
D12*
%TO.C,U1*%
X144665000Y-71470000D02*
X144195000Y-71810000D01*
X144195000Y-71130000D01*
X144665000Y-71470000D01*
G36*
X144665000Y-71470000D02*
G01*
X144195000Y-71810000D01*
X144195000Y-71130000D01*
X144665000Y-71470000D01*
G37*
X150345000Y-77730000D02*
X150345000Y-72210000D01*
X149600000Y-77730000D02*
X150345000Y-77730000D01*
X143925000Y-77730000D02*
X144670000Y-77730000D01*
X150345000Y-72210000D02*
X149600000Y-72210000D01*
X144670000Y-72210000D02*
X143925000Y-72210000D01*
X143925000Y-72210000D02*
X143925000Y-77730000D01*
%TO.C,J1*%
X159865000Y-75705000D02*
X160610000Y-75705000D01*
X159865000Y-74970000D02*
X159865000Y-75705000D01*
X159865000Y-74235000D02*
X159865000Y-72360000D01*
X159865000Y-74235000D02*
X159924435Y-74235000D01*
X159865000Y-72360000D02*
X160199970Y-72360000D01*
X161020030Y-72360000D02*
X161355000Y-72360000D01*
X161295565Y-74235000D02*
X161355000Y-74235000D01*
X161355000Y-74235000D02*
X161355000Y-72360000D01*
%TO.C,D1*%
X129185000Y-69765000D02*
X131455000Y-69765000D01*
X131455000Y-69765000D02*
X131455000Y-73650000D01*
X129185000Y-73650000D02*
X129185000Y-69765000D01*
%TO.C,R3*%
X136775000Y-74482936D02*
X136775000Y-74937064D01*
X135305000Y-74482936D02*
X135305000Y-74937064D01*
%TD*%
M02*
